<svg width="12" height="11" viewBox="0 0 12 11" fill="none" xmlns="http://www.w3.org/2000/svg">
<path fill-rule="evenodd" clip-rule="evenodd" d="M0.400391 5.49991C0.400391 5.34078 0.463605 5.18817 0.576126 5.07564C0.688648 4.96312 0.841261 4.89991 1.00039 4.89991H9.51079L6.18439 1.73191C6.12491 1.67796 6.07687 1.61262 6.04311 1.53976C6.00935 1.46691 5.99056 1.38801 5.98785 1.30776C5.98514 1.22751 5.99856 1.14753 6.02733 1.07256C6.05609 0.997589 6.09961 0.929156 6.15531 0.871315C6.21101 0.813474 6.27775 0.767402 6.35158 0.735829C6.42542 0.704255 6.50483 0.687822 6.58513 0.687505C6.66543 0.687187 6.74497 0.70299 6.81905 0.733979C6.89313 0.764967 6.96024 0.81051 7.01639 0.867908L11.4164 5.06791C11.4745 5.12388 11.5206 5.19098 11.5522 5.26521C11.5837 5.33943 11.6 5.41926 11.6 5.49991C11.6 5.58056 11.5837 5.66038 11.5522 5.73461C11.5206 5.80884 11.4745 5.87594 11.4164 5.93191L7.01639 10.1319C6.96024 10.1893 6.89313 10.2348 6.81905 10.2658C6.74497 10.2968 6.66543 10.3126 6.58513 10.3123C6.50483 10.312 6.42542 10.2956 6.35158 10.264C6.27775 10.2324 6.21101 10.1863 6.15531 10.1285C6.09961 10.0707 6.05609 10.0022 6.02733 9.92726C5.99856 9.85229 5.98514 9.77231 5.98785 9.69206C5.99056 9.6118 6.00935 9.53291 6.04311 9.46005C6.07687 9.3872 6.12491 9.32186 6.18439 9.26791L9.51079 6.09991H1.00039C0.841261 6.09991 0.688648 6.03669 0.576126 5.92417C0.463605 5.81165 0.400391 5.65904 0.400391 5.49991Z" fill="#00847b"/>
</svg>
