<svg width="80" height="81" viewBox="0 0 80 81" fill="none" xmlns="http://www.w3.org/2000/svg">
<rect y="0.1875" width="80" height="80" rx="40" fill="#744FC6"/>
<path d="M30.25 34.75C30.25 43.034 36.966 49.75 45.25 49.75H47.5C48.0967 49.75 48.669 49.5129 49.091 49.091C49.5129 48.669 49.75 48.0967 49.75 47.5V46.128C49.75 45.612 49.399 45.162 48.898 45.037L44.475 43.931C44.035 43.821 43.573 43.986 43.302 44.348L42.332 45.641C42.05 46.017 41.563 46.183 41.122 46.021C39.4849 45.4191 37.9982 44.4686 36.7648 43.2352C35.5314 42.0018 34.5809 40.5151 33.979 38.878C33.817 38.437 33.983 37.95 34.359 37.668L35.652 36.698C36.015 36.427 36.179 35.964 36.069 35.525L34.963 31.102C34.9021 30.8587 34.7617 30.6427 34.5641 30.4883C34.3664 30.334 34.1228 30.2501 33.872 30.25H32.5C31.9033 30.25 31.331 30.4871 30.909 30.909C30.4871 31.331 30.25 31.9033 30.25 32.5V34.75Z" stroke="white" stroke-width="1.5" stroke-linecap="round" stroke-linejoin="round"/>
</svg>
