<svg width="80" height="81" viewBox="0 0 80 81" fill="none" xmlns="http://www.w3.org/2000/svg">
<rect y="0.1875" width="80" height="80" rx="40" fill="#744FC6"/>
<path d="M49.75 34.75V45.25C49.75 45.8467 49.5129 46.419 49.091 46.841C48.669 47.2629 48.0967 47.5 47.5 47.5H32.5C31.9033 47.5 31.331 47.2629 30.909 46.841C30.4871 46.419 30.25 45.8467 30.25 45.25V34.75M49.75 34.75C49.75 34.1533 49.5129 33.581 49.091 33.159C48.669 32.7371 48.0967 32.5 47.5 32.5H32.5C31.9033 32.5 31.331 32.7371 30.909 33.159C30.4871 33.581 30.25 34.1533 30.25 34.75M49.75 34.75V34.993C49.75 35.3771 49.6517 35.7549 49.4644 36.0903C49.2771 36.4257 49.0071 36.7075 48.68 36.909L41.18 41.524C40.8252 41.7425 40.4167 41.8582 40 41.8582C39.5833 41.8582 39.1748 41.7425 38.82 41.524L31.32 36.91C30.9929 36.7085 30.7229 36.4267 30.5356 36.0913C30.3483 35.7559 30.25 35.3781 30.25 34.994V34.75" stroke="white" stroke-width="1.5" stroke-linecap="round" stroke-linejoin="round"/>
</svg>
