<svg width="80" height="81" viewBox="0 0 80 81" fill="none" xmlns="http://www.w3.org/2000/svg">
<rect y="0.1875" width="80" height="80" rx="40" fill="#744FC6"/>
<path d="M43 38.5C43 39.2956 42.6839 40.0587 42.1213 40.6213C41.5587 41.1839 40.7956 41.5 40 41.5C39.2044 41.5 38.4413 41.1839 37.8787 40.6213C37.3161 40.0587 37 39.2956 37 38.5C37 37.7044 37.3161 36.9413 37.8787 36.3787C38.4413 35.8161 39.2044 35.5 40 35.5C40.7956 35.5 41.5587 35.8161 42.1213 36.3787C42.6839 36.9413 43 37.7044 43 38.5Z" stroke="white" stroke-width="1.5" stroke-linecap="round" stroke-linejoin="round"/>
<path d="M47.5 38.5C47.5 45.642 40 49.75 40 49.75C40 49.75 32.5 45.642 32.5 38.5C32.5 36.5109 33.2902 34.6032 34.6967 33.1967C36.1032 31.7902 38.0109 31 40 31C41.9891 31 43.8968 31.7902 45.3033 33.1967C46.7098 34.6032 47.5 36.5109 47.5 38.5Z" stroke="white" stroke-width="1.5" stroke-linecap="round" stroke-linejoin="round"/>
</svg>
