<svg width="63" height="63" viewBox="0 0 63 63" fill="none" xmlns="http://www.w3.org/2000/svg">
<rect width="63" height="63" rx="31.5" fill="#BBE7E4" fill-opacity="0.23"/>
<path fill-rule="evenodd" clip-rule="evenodd" d="M22.5197 20.8571V22H19.2167C17.6209 22 16.2844 23.1032 16.1165 24.5585L14.0171 42.8442C13.9714 43.2424 14.0176 43.645 14.1526 44.0259C14.2876 44.4067 14.5084 44.7572 14.8007 45.0548C15.093 45.3524 15.4503 45.5903 15.8494 45.7531C16.2485 45.9159 16.6804 46.0001 17.1172 46H42.8828C43.3196 46.0001 43.7515 45.9159 44.1506 45.7531C44.5497 45.5903 44.907 45.3524 45.1993 45.0548C45.4916 44.7572 45.7124 44.4067 45.8474 44.0259C45.9824 43.645 46.0286 43.2424 45.9829 42.8442L43.8835 24.5585C43.8029 23.8562 43.4416 23.2062 42.8691 22.7337C42.2966 22.2613 41.5536 21.9999 40.7833 22H37.4803V20.8571C37.4803 19.0385 36.6922 17.2944 35.2894 16.0084C33.8865 14.7224 31.9839 14 30 14C28.0161 14 26.1135 14.7224 24.7106 16.0084C23.3078 17.2944 22.5197 19.0385 22.5197 20.8571ZM30 16.2857C28.6774 16.2857 27.409 16.7673 26.4737 17.6247C25.5385 18.482 25.0131 19.6447 25.0131 20.8571V22H34.9869V20.8571C34.9869 19.6447 34.4615 18.482 33.5263 17.6247C32.591 16.7673 31.3226 16.2857 30 16.2857ZM25.0131 28.8571C25.0131 30.0696 25.5385 31.2323 26.4737 32.0896C27.409 32.9469 28.6774 33.4286 30 33.4286C31.3226 33.4286 32.591 32.9469 33.5263 32.0896C34.4615 31.2323 34.9869 30.0696 34.9869 28.8571V27.7143C34.9869 27.4112 35.1182 27.1205 35.352 26.9062C35.5858 26.6918 35.9029 26.5714 36.2336 26.5714C36.5642 26.5714 36.8813 26.6918 37.1152 26.9062C37.349 27.1205 37.4803 27.4112 37.4803 27.7143V28.8571C37.4803 30.6758 36.6922 32.4199 35.2894 33.7059C33.8865 34.9918 31.9839 35.7143 30 35.7143C28.0161 35.7143 26.1135 34.9918 24.7106 33.7059C23.3078 32.4199 22.5197 30.6758 22.5197 28.8571V27.7143C22.5197 27.4112 22.651 27.1205 22.8848 26.9062C23.1187 26.6918 23.4358 26.5714 23.7664 26.5714C24.0971 26.5714 24.4142 26.6918 24.648 26.9062C24.8818 27.1205 25.0131 27.4112 25.0131 27.7143V28.8571Z" fill="white"/>
</svg>
