<svg width="63" height="63" viewBox="0 0 63 63" fill="none" xmlns="http://www.w3.org/2000/svg">
<rect width="63" height="63" rx="31.5" fill="#BBE7E4" fill-opacity="0.23"/>
<path d="M32 26.75C31.3038 26.75 30.6361 27.0266 30.1438 27.5188C29.6516 28.0111 29.375 28.6788 29.375 29.375C29.375 30.0712 29.6516 30.7389 30.1438 31.2312C30.6361 31.7234 31.3038 32 32 32C32.6962 32 33.3639 31.7234 33.8562 31.2312C34.3484 30.7389 34.625 30.0712 34.625 29.375C34.625 28.6788 34.3484 28.0111 33.8562 27.5188C33.3639 27.0266 32.6962 26.75 32 26.75Z" fill="white"/>
<path fill-rule="evenodd" clip-rule="evenodd" d="M19.75 23.6875C19.75 22.4788 20.73 21.5 21.9375 21.5H42.0625C43.27 21.5 44.25 22.48 44.25 23.6875V35.0625C44.25 36.2712 43.27 37.25 42.0625 37.25H21.9375C21.6502 37.25 21.3658 37.1934 21.1004 37.0835C20.835 36.9736 20.5938 36.8124 20.3907 36.6093C20.1876 36.4062 20.0264 36.165 19.9165 35.8996C19.8066 35.6342 19.75 35.3498 19.75 35.0625V23.6875ZM27.625 29.375C27.625 28.2147 28.0859 27.1019 28.9064 26.2814C29.7269 25.4609 30.8397 25 32 25C33.1603 25 34.2731 25.4609 35.0936 26.2814C35.9141 27.1019 36.375 28.2147 36.375 29.375C36.375 30.5353 35.9141 31.6481 35.0936 32.4686C34.2731 33.2891 33.1603 33.75 32 33.75C30.8397 33.75 29.7269 33.2891 28.9064 32.4686C28.0859 31.6481 27.625 30.5353 27.625 29.375ZM39.875 28.5C39.6429 28.5 39.4204 28.5922 39.2563 28.7563C39.0922 28.9204 39 29.1429 39 29.375V29.3843C39 29.8673 39.392 30.2593 39.875 30.2593H39.8843C40.1164 30.2593 40.339 30.1671 40.5031 30.0031C40.6671 29.839 40.7593 29.6164 40.7593 29.3843V29.375C40.7593 29.1429 40.6671 28.9204 40.5031 28.7563C40.339 28.5922 40.1164 28.5 39.8843 28.5H39.875ZM23.25 29.375C23.25 29.1429 23.3422 28.9204 23.5063 28.7563C23.6704 28.5922 23.8929 28.5 24.125 28.5H24.1343C24.3664 28.5 24.589 28.5922 24.7531 28.7563C24.9171 28.9204 25.0093 29.1429 25.0093 29.375V29.3843C25.0093 29.6164 24.9171 29.839 24.7531 30.0031C24.589 30.1671 24.3664 30.2593 24.1343 30.2593H24.125C23.8929 30.2593 23.6704 30.1671 23.5063 30.0031C23.3422 29.839 23.25 29.6164 23.25 29.3843V29.375Z" fill="white"/>
<path d="M20.625 39C20.3929 39 20.1704 39.0922 20.0063 39.2563C19.8422 39.4204 19.75 39.6429 19.75 39.875C19.75 40.1071 19.8422 40.3296 20.0063 40.4937C20.1704 40.6578 20.3929 40.75 20.625 40.75C26.925 40.75 33.0267 41.5923 38.825 43.1708C40.2133 43.5488 41.625 42.5198 41.625 41.0475V39.875C41.625 39.6429 41.5328 39.4204 41.3687 39.2563C41.2046 39.0922 40.9821 39 40.75 39H20.625Z" fill="white"/>
</svg>
