<svg width="63" height="63" viewBox="0 0 63 63" fill="none" xmlns="http://www.w3.org/2000/svg">
<rect width="63" height="63" rx="31.5" fill="#BBE7E4" fill-opacity="0.23"/>
<path fill-rule="evenodd" clip-rule="evenodd" d="M32 25.875C31.9998 24.9183 32.2236 23.9749 32.6536 23.1203C33.0836 22.2657 33.7078 21.5238 34.4762 20.9539C35.2446 20.384 36.1358 20.002 37.0784 19.8385C38.021 19.675 38.9888 19.7346 39.9042 20.0125C40.0489 20.0563 40.1797 20.1369 40.284 20.2464C40.3883 20.3558 40.4624 20.4904 40.4992 20.6371C40.536 20.7837 40.5341 20.9374 40.4938 21.0831C40.4536 21.2288 40.3762 21.3616 40.2693 21.4685L36.396 25.3407C36.4695 25.8948 36.718 26.4303 37.1438 26.8562C37.5697 27.282 38.1052 27.5305 38.6605 27.6028L42.5315 23.7307C42.6384 23.6238 42.7712 23.5464 42.9169 23.5062C43.0626 23.4659 43.2163 23.464 43.3629 23.5008C43.5096 23.5376 43.6442 23.6117 43.7536 23.716C43.8631 23.8203 43.9437 23.9511 43.9875 24.0958C44.2783 25.0535 44.3299 26.0678 44.1379 27.0501C43.946 28.0323 43.5162 28.9525 42.8863 29.7303C42.2564 30.508 41.4455 31.1195 40.5245 31.5113C39.6036 31.9031 38.6007 32.0633 37.6035 31.9778C36.4158 31.8775 35.4218 32.0945 34.9097 32.7175L26.568 42.85C26.2264 43.2627 25.8025 43.5996 25.3232 43.839C24.844 44.0784 24.32 44.2151 23.7849 44.2403C23.2497 44.2655 22.7152 44.1787 22.2156 43.9854C21.716 43.7921 21.2622 43.4967 20.8833 43.1179C20.5045 42.7391 20.2089 42.2854 20.0155 41.7858C19.8221 41.2862 19.7352 40.7517 19.7603 40.2166C19.7854 39.6815 19.922 39.1575 20.1613 38.6782C20.4006 38.1989 20.7374 37.7748 21.15 37.4332L31.2813 29.0903C31.9032 28.577 32.1213 27.5842 32.021 26.3965C32.0067 26.223 31.9997 26.049 32 25.875ZM22.8032 40.3125C22.8032 40.0804 22.8954 39.8579 23.0594 39.6938C23.2235 39.5297 23.4461 39.4375 23.6782 39.4375H23.6875C23.9196 39.4375 24.1421 39.5297 24.3062 39.6938C24.4703 39.8579 24.5625 40.0804 24.5625 40.3125V40.3218C24.5625 40.5539 24.4703 40.7765 24.3062 40.9405C24.1421 41.1046 23.9196 41.1968 23.6875 41.1968H23.6782C23.4461 41.1968 23.2235 41.1046 23.0594 40.9405C22.8954 40.7765 22.8032 40.5539 22.8032 40.3218V40.3125Z" fill="white"/>
<path d="M29.755 28.0799L27.1872 25.5132V23.6862C27.1872 23.5351 27.1481 23.3867 27.0736 23.2552C26.9992 23.1237 26.892 23.0138 26.7625 22.936L22.3875 20.311C22.2202 20.2107 22.0241 20.1692 21.8305 20.1931C21.6369 20.217 21.4568 20.3049 21.3188 20.4429L20.4438 21.3179C20.3059 21.4558 20.218 21.6359 20.1941 21.8295C20.1702 22.0232 20.2117 22.2192 20.312 22.3865L22.937 26.7615C23.0148 26.8911 23.1247 26.9982 23.2562 27.0727C23.3876 27.1471 23.5361 27.1862 23.6872 27.1862H25.5118L27.9175 29.5919L29.755 28.0787V28.0799Z" fill="white"/>
<path fill-rule="evenodd" clip-rule="evenodd" d="M32.6487 38.2172L37.5288 43.0962C37.8945 43.4618 38.3285 43.7518 38.8063 43.9497C39.284 44.1476 39.796 44.2494 40.3131 44.2494C40.8302 44.2494 41.3422 44.1476 41.8199 43.9497C42.2976 43.7518 42.7317 43.4618 43.0973 43.0962C43.463 42.7305 43.753 42.2965 43.9509 41.8187C44.1488 41.341 44.2506 40.829 44.2506 40.3119C44.2506 39.7948 44.1488 39.2828 43.9509 38.8051C43.753 38.3274 43.463 37.8933 43.0973 37.5277L39.2403 33.6718C38.6491 33.7556 38.0503 33.7725 37.4553 33.722C36.9957 33.6823 36.6597 33.715 36.4438 33.771C36.3755 33.7855 36.3098 33.8102 36.249 33.8445L32.6487 38.2172ZM36.6317 36.6305C36.7957 36.4666 37.0181 36.3746 37.25 36.3746C37.4819 36.3746 37.7043 36.4666 37.8683 36.6305L40.0558 38.8192C40.1418 38.8993 40.2108 38.9959 40.2586 39.1032C40.3064 39.2105 40.3321 39.3264 40.3342 39.4439C40.3363 39.5614 40.3147 39.6781 40.2706 39.787C40.2266 39.896 40.1611 39.995 40.078 40.078C39.995 40.1611 39.896 40.2266 39.787 40.2706C39.6781 40.3146 39.5614 40.3363 39.4439 40.3342C39.3264 40.3321 39.2105 40.3064 39.1032 40.2586C38.9959 40.2108 38.8993 40.1418 38.8192 40.0558L36.6317 37.8683C36.4678 37.7043 36.3758 37.4819 36.3758 37.25C36.3758 37.0181 36.4678 36.7957 36.6317 36.6317V36.6305Z" fill="white"/>
</svg>
