<svg width="68" height="68" viewBox="0 0 68 68" fill="none" xmlns="http://www.w3.org/2000/svg">
<rect width="68" height="68" rx="34" fill="#528699"/>
<path d="M24 23C22.9391 23 21.9217 23.4214 21.1716 24.1716C20.4214 24.9217 20 25.9391 20 27V28H48V27C48 25.9391 47.5786 24.9217 46.8284 24.1716C46.0783 23.4214 45.0609 23 44 23H24Z" fill="white"/>
<path fill-rule="evenodd" clip-rule="evenodd" d="M48 31H20V41C20 42.0609 20.4214 43.0783 21.1716 43.8284C21.9217 44.5786 22.9391 45 24 45H44C45.0609 45 46.0783 44.5786 46.8284 43.8284C47.5786 43.0783 48 42.0609 48 41V31ZM24 36C24 35.7348 24.1054 35.4804 24.2929 35.2929C24.4804 35.1054 24.7348 35 25 35H33C33.2652 35 33.5196 35.1054 33.7071 35.2929C33.8946 35.4804 34 35.7348 34 36C34 36.2652 33.8946 36.5196 33.7071 36.7071C33.5196 36.8946 33.2652 37 33 37H25C24.7348 37 24.4804 36.8946 24.2929 36.7071C24.1054 36.5196 24 36.2652 24 36ZM25 39C24.7348 39 24.4804 39.1054 24.2929 39.2929C24.1054 39.4804 24 39.7348 24 40C24 40.2652 24.1054 40.5196 24.2929 40.7071C24.4804 40.8946 24.7348 41 25 41H29C29.2652 41 29.5196 40.8946 29.7071 40.7071C29.8946 40.5196 30 40.2652 30 40C30 39.7348 29.8946 39.4804 29.7071 39.2929C29.5196 39.1054 29.2652 39 29 39H25Z" fill="white"/>
</svg>
