<svg width="20" height="22" viewBox="0 0 20 22" fill="none" xmlns="http://www.w3.org/2000/svg">
<g clip-path="url(#clip0_1_14650)">
<path d="M14.7533 14.3011C17.2892 12.8961 19.2116 11.8255 19.3773 11.7422C19.9074 11.4578 20.4548 10.7049 19.3773 10.1202C19.0295 9.93625 17.1564 8.89898 14.7533 7.56128L11.4219 10.9562L14.7533 14.301V14.3011Z" fill="#FFD900"/>
<path d="M11.4201 10.9558L0.8125 21.7434C1.06148 21.7767 1.34258 21.7101 1.67398 21.5262C2.36977 21.1419 9.7457 17.0774 14.7515 14.3015L11.4201 10.9558Z" fill="#F43249"/>
<path d="M11.4209 10.9561L14.7523 7.57792C14.7523 7.57792 2.42094 0.78724 1.67484 0.386379C1.39375 0.218388 1.07875 0.168487 0.796875 0.218388L11.4209 10.9561Z" fill="#00EE76"/>
<path d="M11.4196 10.9561L0.795547 0.218384C0.364375 0.318974 0 0.703359 0 1.48947V20.4726C0 21.1921 0.281953 21.7104 0.812031 21.7604L11.4196 10.9561Z" fill="#00D3FF"/>
</g>
<defs>
<clipPath id="clip0_1_14650">
<rect width="20" height="21.6" fill="white" transform="translate(0 0.199951)"/>
</clipPath>
</defs>
</svg>
